<mxfile host="app.diagrams.net" modified="2024-01-06T18:05:38.229Z" agent="Mozilla/5.0 (Macintosh; Intel Mac OS X 10_15_7) AppleWebKit/605.1.15 (KHTML, like Gecko) Version/16.3 Safari/605.1.15" etag="wEUxtPMR4RfjxWPzkTuo" version="22.1.17" type="device" pages="4">
  <diagram name="Sum Of Two Numbers" id="CQ1czSJvmHgrVi8OcBaz">
    <mxGraphModel dx="1016" dy="696" grid="1" gridSize="10" guides="1" tooltips="1" connect="1" arrows="1" fold="1" page="1" pageScale="1" pageWidth="850" pageHeight="1100" math="0" shadow="0">
      <root>
        <mxCell id="0" />
        <mxCell id="1" parent="0" />
        <mxCell id="62KmI2AajL6KcDnT_YeH-10" style="edgeStyle=orthogonalEdgeStyle;rounded=0;orthogonalLoop=1;jettySize=auto;html=1;exitX=1;exitY=0.5;exitDx=0;exitDy=0;entryX=0;entryY=0.5;entryDx=0;entryDy=0;" edge="1" parent="1" source="62KmI2AajL6KcDnT_YeH-1" target="62KmI2AajL6KcDnT_YeH-3">
          <mxGeometry relative="1" as="geometry" />
        </mxCell>
        <mxCell id="62KmI2AajL6KcDnT_YeH-1" value="BEGIN" style="ellipse;whiteSpace=wrap;html=1;" vertex="1" parent="1">
          <mxGeometry x="80" y="60" width="120" height="80" as="geometry" />
        </mxCell>
        <mxCell id="62KmI2AajL6KcDnT_YeH-11" style="edgeStyle=orthogonalEdgeStyle;rounded=0;orthogonalLoop=1;jettySize=auto;html=1;exitX=1;exitY=0.5;exitDx=0;exitDy=0;entryX=0;entryY=0.5;entryDx=0;entryDy=0;" edge="1" parent="1" source="62KmI2AajL6KcDnT_YeH-3" target="62KmI2AajL6KcDnT_YeH-4">
          <mxGeometry relative="1" as="geometry" />
        </mxCell>
        <mxCell id="62KmI2AajL6KcDnT_YeH-3" value="&quot;Please enter first number: &quot;" style="shape=document;whiteSpace=wrap;html=1;boundedLbl=1;" vertex="1" parent="1">
          <mxGeometry x="280" y="60" width="120" height="80" as="geometry" />
        </mxCell>
        <mxCell id="62KmI2AajL6KcDnT_YeH-12" style="edgeStyle=orthogonalEdgeStyle;rounded=0;orthogonalLoop=1;jettySize=auto;html=1;exitX=1;exitY=0.5;exitDx=0;exitDy=0;entryX=0;entryY=0.5;entryDx=0;entryDy=0;" edge="1" parent="1" source="62KmI2AajL6KcDnT_YeH-4" target="62KmI2AajL6KcDnT_YeH-5">
          <mxGeometry relative="1" as="geometry" />
        </mxCell>
        <mxCell id="62KmI2AajL6KcDnT_YeH-4" value="firstNumber" style="shape=parallelogram;perimeter=parallelogramPerimeter;whiteSpace=wrap;html=1;fixedSize=1;" vertex="1" parent="1">
          <mxGeometry x="500" y="70" width="120" height="60" as="geometry" />
        </mxCell>
        <mxCell id="62KmI2AajL6KcDnT_YeH-13" style="edgeStyle=orthogonalEdgeStyle;rounded=0;orthogonalLoop=1;jettySize=auto;html=1;exitX=1;exitY=0.5;exitDx=0;exitDy=0;entryX=0;entryY=0.5;entryDx=0;entryDy=0;" edge="1" parent="1" source="62KmI2AajL6KcDnT_YeH-5" target="62KmI2AajL6KcDnT_YeH-6">
          <mxGeometry relative="1" as="geometry" />
        </mxCell>
        <mxCell id="62KmI2AajL6KcDnT_YeH-5" value="&quot;Please enter second number: &quot;" style="shape=document;whiteSpace=wrap;html=1;boundedLbl=1;" vertex="1" parent="1">
          <mxGeometry x="720" y="60" width="120" height="80" as="geometry" />
        </mxCell>
        <mxCell id="62KmI2AajL6KcDnT_YeH-14" style="edgeStyle=orthogonalEdgeStyle;rounded=0;orthogonalLoop=1;jettySize=auto;html=1;exitX=1;exitY=0.5;exitDx=0;exitDy=0;entryX=0;entryY=0.5;entryDx=0;entryDy=0;" edge="1" parent="1" source="62KmI2AajL6KcDnT_YeH-6" target="62KmI2AajL6KcDnT_YeH-7">
          <mxGeometry relative="1" as="geometry" />
        </mxCell>
        <mxCell id="62KmI2AajL6KcDnT_YeH-6" value="secondNumber" style="shape=parallelogram;perimeter=parallelogramPerimeter;whiteSpace=wrap;html=1;fixedSize=1;" vertex="1" parent="1">
          <mxGeometry x="940" y="70" width="120" height="60" as="geometry" />
        </mxCell>
        <mxCell id="62KmI2AajL6KcDnT_YeH-15" style="edgeStyle=orthogonalEdgeStyle;rounded=0;orthogonalLoop=1;jettySize=auto;html=1;exitX=1;exitY=0.5;exitDx=0;exitDy=0;entryX=0;entryY=0.5;entryDx=0;entryDy=0;" edge="1" parent="1" source="62KmI2AajL6KcDnT_YeH-7" target="62KmI2AajL6KcDnT_YeH-8">
          <mxGeometry relative="1" as="geometry" />
        </mxCell>
        <mxCell id="62KmI2AajL6KcDnT_YeH-7" value="result = firstNumber + secondNumber" style="rounded=0;whiteSpace=wrap;html=1;" vertex="1" parent="1">
          <mxGeometry x="1160" y="70" width="280" height="60" as="geometry" />
        </mxCell>
        <mxCell id="62KmI2AajL6KcDnT_YeH-16" style="edgeStyle=orthogonalEdgeStyle;rounded=0;orthogonalLoop=1;jettySize=auto;html=1;exitX=1;exitY=0.5;exitDx=0;exitDy=0;entryX=0;entryY=0.5;entryDx=0;entryDy=0;" edge="1" parent="1" source="62KmI2AajL6KcDnT_YeH-8" target="62KmI2AajL6KcDnT_YeH-9">
          <mxGeometry relative="1" as="geometry" />
        </mxCell>
        <mxCell id="62KmI2AajL6KcDnT_YeH-8" value="&quot;Result : &quot; + result" style="shape=document;whiteSpace=wrap;html=1;boundedLbl=1;" vertex="1" parent="1">
          <mxGeometry x="1540" y="60" width="120" height="80" as="geometry" />
        </mxCell>
        <mxCell id="62KmI2AajL6KcDnT_YeH-9" value="END" style="ellipse;whiteSpace=wrap;html=1;" vertex="1" parent="1">
          <mxGeometry x="1760" y="60" width="120" height="80" as="geometry" />
        </mxCell>
        <mxCell id="62KmI2AajL6KcDnT_YeH-17" value="// Console.WriteLine" style="text;html=1;strokeColor=none;fillColor=none;align=center;verticalAlign=middle;whiteSpace=wrap;rounded=0;" vertex="1" parent="1">
          <mxGeometry x="290" y="40" width="180" height="20" as="geometry" />
        </mxCell>
        <mxCell id="62KmI2AajL6KcDnT_YeH-18" value="// Console.ReadLine" style="text;html=1;strokeColor=none;fillColor=none;align=center;verticalAlign=middle;whiteSpace=wrap;rounded=0;" vertex="1" parent="1">
          <mxGeometry x="530" y="40" width="180" height="20" as="geometry" />
        </mxCell>
        <mxCell id="62KmI2AajL6KcDnT_YeH-19" value="// Console.WriteLine" style="text;html=1;strokeColor=none;fillColor=none;align=center;verticalAlign=middle;whiteSpace=wrap;rounded=0;" vertex="1" parent="1">
          <mxGeometry x="720" y="40" width="180" height="20" as="geometry" />
        </mxCell>
        <mxCell id="62KmI2AajL6KcDnT_YeH-20" value="// Console.ReadLine" style="text;html=1;strokeColor=none;fillColor=none;align=center;verticalAlign=middle;whiteSpace=wrap;rounded=0;" vertex="1" parent="1">
          <mxGeometry x="950" y="50" width="180" height="20" as="geometry" />
        </mxCell>
        <mxCell id="62KmI2AajL6KcDnT_YeH-21" value="// Console.WriteLine" style="text;html=1;strokeColor=none;fillColor=none;align=center;verticalAlign=middle;whiteSpace=wrap;rounded=0;" vertex="1" parent="1">
          <mxGeometry x="1550" y="40" width="180" height="20" as="geometry" />
        </mxCell>
      </root>
    </mxGraphModel>
  </diagram>
  <diagram id="vWQri59yZeszpg12-rry" name="Odd/Even Check">
    <mxGraphModel dx="1016" dy="696" grid="1" gridSize="10" guides="1" tooltips="1" connect="1" arrows="1" fold="1" page="1" pageScale="1" pageWidth="850" pageHeight="1100" math="0" shadow="0">
      <root>
        <mxCell id="0" />
        <mxCell id="1" parent="0" />
        <mxCell id="lAE0kuBpovE9fxRlsAi_-1" value="BEGIN" style="ellipse;whiteSpace=wrap;html=1;" vertex="1" parent="1">
          <mxGeometry x="90" y="93" width="120" height="80" as="geometry" />
        </mxCell>
        <mxCell id="lAE0kuBpovE9fxRlsAi_-11" style="edgeStyle=orthogonalEdgeStyle;rounded=0;orthogonalLoop=1;jettySize=auto;html=1;exitX=1;exitY=0.5;exitDx=0;exitDy=0;entryX=0;entryY=0.5;entryDx=0;entryDy=0;" edge="1" parent="1" source="lAE0kuBpovE9fxRlsAi_-2" target="lAE0kuBpovE9fxRlsAi_-3">
          <mxGeometry relative="1" as="geometry" />
        </mxCell>
        <mxCell id="lAE0kuBpovE9fxRlsAi_-2" value="&quot;Please enter a number: &quot;" style="shape=document;whiteSpace=wrap;html=1;boundedLbl=1;" vertex="1" parent="1">
          <mxGeometry x="305" y="100" width="120" height="80" as="geometry" />
        </mxCell>
        <mxCell id="lAE0kuBpovE9fxRlsAi_-12" style="edgeStyle=orthogonalEdgeStyle;rounded=0;orthogonalLoop=1;jettySize=auto;html=1;exitX=1;exitY=0.5;exitDx=0;exitDy=0;entryX=0;entryY=0.5;entryDx=0;entryDy=0;" edge="1" parent="1" source="lAE0kuBpovE9fxRlsAi_-3" target="lAE0kuBpovE9fxRlsAi_-4">
          <mxGeometry relative="1" as="geometry" />
        </mxCell>
        <mxCell id="lAE0kuBpovE9fxRlsAi_-3" value="number" style="shape=parallelogram;perimeter=parallelogramPerimeter;whiteSpace=wrap;html=1;fixedSize=1;" vertex="1" parent="1">
          <mxGeometry x="530" y="110" width="120" height="60" as="geometry" />
        </mxCell>
        <mxCell id="lAE0kuBpovE9fxRlsAi_-6" value="YES" style="edgeStyle=orthogonalEdgeStyle;rounded=0;orthogonalLoop=1;jettySize=auto;html=1;exitX=1;exitY=0.5;exitDx=0;exitDy=0;" edge="1" parent="1" source="lAE0kuBpovE9fxRlsAi_-4" target="lAE0kuBpovE9fxRlsAi_-5">
          <mxGeometry relative="1" as="geometry" />
        </mxCell>
        <mxCell id="lAE0kuBpovE9fxRlsAi_-8" value="NO" style="edgeStyle=orthogonalEdgeStyle;rounded=0;orthogonalLoop=1;jettySize=auto;html=1;exitX=0.5;exitY=1;exitDx=0;exitDy=0;entryX=0.5;entryY=0;entryDx=0;entryDy=0;" edge="1" parent="1" source="lAE0kuBpovE9fxRlsAi_-4" target="lAE0kuBpovE9fxRlsAi_-7">
          <mxGeometry relative="1" as="geometry" />
        </mxCell>
        <mxCell id="lAE0kuBpovE9fxRlsAi_-4" value="number % 2 == 0" style="rhombus;whiteSpace=wrap;html=1;" vertex="1" parent="1">
          <mxGeometry x="780" y="80" width="180" height="120" as="geometry" />
        </mxCell>
        <mxCell id="lAE0kuBpovE9fxRlsAi_-13" style="edgeStyle=orthogonalEdgeStyle;rounded=0;orthogonalLoop=1;jettySize=auto;html=1;exitX=1;exitY=0.5;exitDx=0;exitDy=0;entryX=0.5;entryY=0;entryDx=0;entryDy=0;" edge="1" parent="1" source="lAE0kuBpovE9fxRlsAi_-5" target="lAE0kuBpovE9fxRlsAi_-9">
          <mxGeometry relative="1" as="geometry" />
        </mxCell>
        <mxCell id="lAE0kuBpovE9fxRlsAi_-5" value="&quot;The number is even.&quot;" style="shape=document;whiteSpace=wrap;html=1;boundedLbl=1;" vertex="1" parent="1">
          <mxGeometry x="1070" y="100" width="160" height="80" as="geometry" />
        </mxCell>
        <mxCell id="lAE0kuBpovE9fxRlsAi_-14" style="edgeStyle=orthogonalEdgeStyle;rounded=0;orthogonalLoop=1;jettySize=auto;html=1;exitX=1;exitY=0.5;exitDx=0;exitDy=0;entryX=0;entryY=0.5;entryDx=0;entryDy=0;" edge="1" parent="1" source="lAE0kuBpovE9fxRlsAi_-7" target="lAE0kuBpovE9fxRlsAi_-9">
          <mxGeometry relative="1" as="geometry" />
        </mxCell>
        <mxCell id="lAE0kuBpovE9fxRlsAi_-7" value="&quot;The number is odd.&quot;" style="shape=document;whiteSpace=wrap;html=1;boundedLbl=1;" vertex="1" parent="1">
          <mxGeometry x="790" y="330" width="160" height="80" as="geometry" />
        </mxCell>
        <mxCell id="lAE0kuBpovE9fxRlsAi_-9" value="END" style="ellipse;whiteSpace=wrap;html=1;" vertex="1" parent="1">
          <mxGeometry x="1340" y="330" width="120" height="80" as="geometry" />
        </mxCell>
        <mxCell id="lAE0kuBpovE9fxRlsAi_-10" style="edgeStyle=orthogonalEdgeStyle;rounded=0;orthogonalLoop=1;jettySize=auto;html=1;exitX=1;exitY=0.5;exitDx=0;exitDy=0;entryX=-0.008;entryY=0.413;entryDx=0;entryDy=0;entryPerimeter=0;" edge="1" parent="1" source="lAE0kuBpovE9fxRlsAi_-1" target="lAE0kuBpovE9fxRlsAi_-2">
          <mxGeometry relative="1" as="geometry" />
        </mxCell>
        <mxCell id="lAE0kuBpovE9fxRlsAi_-15" value="// if () ..." style="text;html=1;strokeColor=none;fillColor=none;align=center;verticalAlign=middle;whiteSpace=wrap;rounded=0;" vertex="1" parent="1">
          <mxGeometry x="870" y="30" width="60" height="30" as="geometry" />
        </mxCell>
      </root>
    </mxGraphModel>
  </diagram>
  <diagram id="8R7ro0AvZCnvgy-pkxW5" name="Triangle">
    <mxGraphModel dx="1016" dy="696" grid="1" gridSize="10" guides="1" tooltips="1" connect="1" arrows="1" fold="1" page="1" pageScale="1" pageWidth="850" pageHeight="1100" math="0" shadow="0">
      <root>
        <mxCell id="0" />
        <mxCell id="1" parent="0" />
        <mxCell id="hWw4e46My7WYqPWtwXjY-3" style="edgeStyle=orthogonalEdgeStyle;rounded=0;orthogonalLoop=1;jettySize=auto;html=1;exitX=1;exitY=0.5;exitDx=0;exitDy=0;entryX=0;entryY=0.5;entryDx=0;entryDy=0;" edge="1" parent="1" source="hWw4e46My7WYqPWtwXjY-1" target="hWw4e46My7WYqPWtwXjY-2">
          <mxGeometry relative="1" as="geometry" />
        </mxCell>
        <mxCell id="hWw4e46My7WYqPWtwXjY-1" value="BEGIN" style="ellipse;whiteSpace=wrap;html=1;" vertex="1" parent="1">
          <mxGeometry x="70" y="70" width="120" height="80" as="geometry" />
        </mxCell>
        <mxCell id="hWw4e46My7WYqPWtwXjY-5" style="edgeStyle=orthogonalEdgeStyle;rounded=0;orthogonalLoop=1;jettySize=auto;html=1;exitX=1;exitY=0.5;exitDx=0;exitDy=0;entryX=0;entryY=0.5;entryDx=0;entryDy=0;" edge="1" parent="1" source="hWw4e46My7WYqPWtwXjY-2" target="hWw4e46My7WYqPWtwXjY-4">
          <mxGeometry relative="1" as="geometry" />
        </mxCell>
        <mxCell id="hWw4e46My7WYqPWtwXjY-2" value="&quot;Please enter the length: &quot;" style="shape=document;whiteSpace=wrap;html=1;boundedLbl=1;" vertex="1" parent="1">
          <mxGeometry x="310" y="65" width="180" height="90" as="geometry" />
        </mxCell>
        <mxCell id="hWw4e46My7WYqPWtwXjY-8" style="edgeStyle=orthogonalEdgeStyle;rounded=0;orthogonalLoop=1;jettySize=auto;html=1;exitX=0.5;exitY=1;exitDx=0;exitDy=0;entryX=0.5;entryY=0;entryDx=0;entryDy=0;" edge="1" parent="1" source="hWw4e46My7WYqPWtwXjY-4" target="hWw4e46My7WYqPWtwXjY-6">
          <mxGeometry relative="1" as="geometry" />
        </mxCell>
        <mxCell id="hWw4e46My7WYqPWtwXjY-4" value="length" style="shape=parallelogram;perimeter=parallelogramPerimeter;whiteSpace=wrap;html=1;fixedSize=1;" vertex="1" parent="1">
          <mxGeometry x="630" y="80" width="120" height="60" as="geometry" />
        </mxCell>
        <mxCell id="hWw4e46My7WYqPWtwXjY-9" style="edgeStyle=orthogonalEdgeStyle;rounded=0;orthogonalLoop=1;jettySize=auto;html=1;exitX=0.5;exitY=1;exitDx=0;exitDy=0;entryX=0.5;entryY=0;entryDx=0;entryDy=0;" edge="1" parent="1" source="hWw4e46My7WYqPWtwXjY-6" target="hWw4e46My7WYqPWtwXjY-7">
          <mxGeometry relative="1" as="geometry" />
        </mxCell>
        <mxCell id="hWw4e46My7WYqPWtwXjY-6" value="i = &amp;nbsp;length" style="rounded=0;whiteSpace=wrap;html=1;" vertex="1" parent="1">
          <mxGeometry x="630" y="230" width="120" height="60" as="geometry" />
        </mxCell>
        <mxCell id="hWw4e46My7WYqPWtwXjY-10" value="NO" style="edgeStyle=orthogonalEdgeStyle;rounded=0;orthogonalLoop=1;jettySize=auto;html=1;exitX=1;exitY=0.5;exitDx=0;exitDy=0;entryX=0.5;entryY=1;entryDx=0;entryDy=0;" edge="1" parent="1" source="hWw4e46My7WYqPWtwXjY-7" target="hWw4e46My7WYqPWtwXjY-11">
          <mxGeometry relative="1" as="geometry">
            <mxPoint x="850" y="230" as="targetPoint" />
          </mxGeometry>
        </mxCell>
        <mxCell id="hWw4e46My7WYqPWtwXjY-13" value="YES" style="edgeStyle=orthogonalEdgeStyle;rounded=0;orthogonalLoop=1;jettySize=auto;html=1;exitX=0.5;exitY=1;exitDx=0;exitDy=0;entryX=0.5;entryY=0;entryDx=0;entryDy=0;" edge="1" parent="1" source="hWw4e46My7WYqPWtwXjY-7" target="hWw4e46My7WYqPWtwXjY-12">
          <mxGeometry relative="1" as="geometry" />
        </mxCell>
        <mxCell id="hWw4e46My7WYqPWtwXjY-7" value="i &amp;gt; 0" style="rhombus;whiteSpace=wrap;html=1;" vertex="1" parent="1">
          <mxGeometry x="650" y="330" width="80" height="80" as="geometry" />
        </mxCell>
        <mxCell id="hWw4e46My7WYqPWtwXjY-11" value="END" style="ellipse;whiteSpace=wrap;html=1;" vertex="1" parent="1">
          <mxGeometry x="830" y="80" width="120" height="80" as="geometry" />
        </mxCell>
        <mxCell id="hWw4e46My7WYqPWtwXjY-15" style="edgeStyle=orthogonalEdgeStyle;rounded=0;orthogonalLoop=1;jettySize=auto;html=1;exitX=0.5;exitY=1;exitDx=0;exitDy=0;entryX=0.5;entryY=0;entryDx=0;entryDy=0;" edge="1" parent="1" source="hWw4e46My7WYqPWtwXjY-12" target="hWw4e46My7WYqPWtwXjY-14">
          <mxGeometry relative="1" as="geometry" />
        </mxCell>
        <mxCell id="hWw4e46My7WYqPWtwXjY-12" value="j = 0" style="rounded=0;whiteSpace=wrap;html=1;" vertex="1" parent="1">
          <mxGeometry x="630" y="480" width="120" height="60" as="geometry" />
        </mxCell>
        <mxCell id="hWw4e46My7WYqPWtwXjY-17" value="YES" style="edgeStyle=orthogonalEdgeStyle;rounded=0;orthogonalLoop=1;jettySize=auto;html=1;exitX=0.5;exitY=1;exitDx=0;exitDy=0;entryX=0.5;entryY=0;entryDx=0;entryDy=0;" edge="1" parent="1" source="hWw4e46My7WYqPWtwXjY-14" target="hWw4e46My7WYqPWtwXjY-16">
          <mxGeometry relative="1" as="geometry" />
        </mxCell>
        <mxCell id="hWw4e46My7WYqPWtwXjY-26" value="NO" style="edgeStyle=orthogonalEdgeStyle;rounded=0;orthogonalLoop=1;jettySize=auto;html=1;exitX=0;exitY=0.5;exitDx=0;exitDy=0;entryX=1;entryY=0.5;entryDx=0;entryDy=0;" edge="1" parent="1" source="hWw4e46My7WYqPWtwXjY-14" target="hWw4e46My7WYqPWtwXjY-25">
          <mxGeometry relative="1" as="geometry">
            <Array as="points">
              <mxPoint x="620" y="670" />
              <mxPoint x="620" y="670" />
            </Array>
          </mxGeometry>
        </mxCell>
        <mxCell id="hWw4e46My7WYqPWtwXjY-14" value="j &amp;lt; i" style="rhombus;whiteSpace=wrap;html=1;" vertex="1" parent="1">
          <mxGeometry x="650" y="630" width="80" height="80" as="geometry" />
        </mxCell>
        <mxCell id="hWw4e46My7WYqPWtwXjY-21" style="edgeStyle=orthogonalEdgeStyle;rounded=0;orthogonalLoop=1;jettySize=auto;html=1;exitX=1;exitY=0.5;exitDx=0;exitDy=0;entryX=0;entryY=0.5;entryDx=0;entryDy=0;" edge="1" parent="1" source="hWw4e46My7WYqPWtwXjY-16" target="hWw4e46My7WYqPWtwXjY-18">
          <mxGeometry relative="1" as="geometry" />
        </mxCell>
        <mxCell id="hWw4e46My7WYqPWtwXjY-16" value="&quot;*&quot;" style="shape=document;whiteSpace=wrap;html=1;boundedLbl=1;" vertex="1" parent="1">
          <mxGeometry x="630" y="780" width="120" height="80" as="geometry" />
        </mxCell>
        <mxCell id="hWw4e46My7WYqPWtwXjY-20" style="edgeStyle=orthogonalEdgeStyle;rounded=0;orthogonalLoop=1;jettySize=auto;html=1;exitX=0.5;exitY=0;exitDx=0;exitDy=0;entryX=1;entryY=0.5;entryDx=0;entryDy=0;" edge="1" parent="1" source="hWw4e46My7WYqPWtwXjY-18" target="hWw4e46My7WYqPWtwXjY-14">
          <mxGeometry relative="1" as="geometry" />
        </mxCell>
        <mxCell id="hWw4e46My7WYqPWtwXjY-18" value="j = j + 1" style="rounded=0;whiteSpace=wrap;html=1;" vertex="1" parent="1">
          <mxGeometry x="880" y="790" width="120" height="60" as="geometry" />
        </mxCell>
        <mxCell id="hWw4e46My7WYqPWtwXjY-24" style="edgeStyle=orthogonalEdgeStyle;rounded=0;orthogonalLoop=1;jettySize=auto;html=1;exitX=0.5;exitY=0;exitDx=0;exitDy=0;entryX=0;entryY=0.5;entryDx=0;entryDy=0;" edge="1" parent="1" source="hWw4e46My7WYqPWtwXjY-22" target="hWw4e46My7WYqPWtwXjY-7">
          <mxGeometry relative="1" as="geometry" />
        </mxCell>
        <mxCell id="hWw4e46My7WYqPWtwXjY-22" value="i = i - 1" style="rounded=0;whiteSpace=wrap;html=1;" vertex="1" parent="1">
          <mxGeometry x="220" y="640" width="120" height="60" as="geometry" />
        </mxCell>
        <mxCell id="hWw4e46My7WYqPWtwXjY-27" style="edgeStyle=orthogonalEdgeStyle;rounded=0;orthogonalLoop=1;jettySize=auto;html=1;exitX=0;exitY=0.5;exitDx=0;exitDy=0;entryX=1;entryY=0.5;entryDx=0;entryDy=0;" edge="1" parent="1" source="hWw4e46My7WYqPWtwXjY-25" target="hWw4e46My7WYqPWtwXjY-22">
          <mxGeometry relative="1" as="geometry" />
        </mxCell>
        <mxCell id="hWw4e46My7WYqPWtwXjY-25" value="&amp;lt;ENTER&amp;gt;" style="shape=document;whiteSpace=wrap;html=1;boundedLbl=1;" vertex="1" parent="1">
          <mxGeometry x="425" y="630" width="120" height="80" as="geometry" />
        </mxCell>
      </root>
    </mxGraphModel>
  </diagram>
  <diagram id="8WWVzil4kVSBmcy_Nsur" name="Rectangle">
    <mxGraphModel dx="782" dy="535" grid="1" gridSize="10" guides="1" tooltips="1" connect="1" arrows="1" fold="1" page="1" pageScale="1" pageWidth="850" pageHeight="1100" math="0" shadow="0">
      <root>
        <mxCell id="0" />
        <mxCell id="1" parent="0" />
        <mxCell id="E7fMpskd_EGFrEy_9-nK-3" style="edgeStyle=orthogonalEdgeStyle;rounded=0;orthogonalLoop=1;jettySize=auto;html=1;exitX=1;exitY=0.5;exitDx=0;exitDy=0;entryX=0;entryY=0.5;entryDx=0;entryDy=0;" edge="1" parent="1" source="E7fMpskd_EGFrEy_9-nK-1" target="E7fMpskd_EGFrEy_9-nK-2">
          <mxGeometry relative="1" as="geometry" />
        </mxCell>
        <mxCell id="E7fMpskd_EGFrEy_9-nK-1" value="BEGIN" style="ellipse;whiteSpace=wrap;html=1;" vertex="1" parent="1">
          <mxGeometry x="30" y="40" width="120" height="80" as="geometry" />
        </mxCell>
        <mxCell id="E7fMpskd_EGFrEy_9-nK-5" style="edgeStyle=orthogonalEdgeStyle;rounded=0;orthogonalLoop=1;jettySize=auto;html=1;exitX=1;exitY=0.5;exitDx=0;exitDy=0;entryX=0;entryY=0.5;entryDx=0;entryDy=0;" edge="1" parent="1" source="E7fMpskd_EGFrEy_9-nK-2" target="E7fMpskd_EGFrEy_9-nK-4">
          <mxGeometry relative="1" as="geometry" />
        </mxCell>
        <mxCell id="E7fMpskd_EGFrEy_9-nK-2" value="&quot;Please enter a length: &quot;" style="shape=document;whiteSpace=wrap;html=1;boundedLbl=1;" vertex="1" parent="1">
          <mxGeometry x="225" y="40" width="200" height="80" as="geometry" />
        </mxCell>
        <mxCell id="E7fMpskd_EGFrEy_9-nK-7" style="edgeStyle=orthogonalEdgeStyle;rounded=0;orthogonalLoop=1;jettySize=auto;html=1;exitX=1;exitY=0.5;exitDx=0;exitDy=0;entryX=0;entryY=0.5;entryDx=0;entryDy=0;" edge="1" parent="1" source="E7fMpskd_EGFrEy_9-nK-4" target="E7fMpskd_EGFrEy_9-nK-6">
          <mxGeometry relative="1" as="geometry" />
        </mxCell>
        <mxCell id="E7fMpskd_EGFrEy_9-nK-4" value="length" style="shape=parallelogram;perimeter=parallelogramPerimeter;whiteSpace=wrap;html=1;fixedSize=1;" vertex="1" parent="1">
          <mxGeometry x="500" y="50" width="120" height="60" as="geometry" />
        </mxCell>
        <mxCell id="E7fMpskd_EGFrEy_9-nK-9" style="edgeStyle=orthogonalEdgeStyle;rounded=0;orthogonalLoop=1;jettySize=auto;html=1;exitX=1;exitY=0.5;exitDx=0;exitDy=0;entryX=0;entryY=0.5;entryDx=0;entryDy=0;" edge="1" parent="1" source="E7fMpskd_EGFrEy_9-nK-6" target="E7fMpskd_EGFrEy_9-nK-8">
          <mxGeometry relative="1" as="geometry" />
        </mxCell>
        <mxCell id="E7fMpskd_EGFrEy_9-nK-6" value="i = length + 2&lt;br&gt;r = 0" style="rounded=0;whiteSpace=wrap;html=1;" vertex="1" parent="1">
          <mxGeometry x="710" y="50" width="120" height="60" as="geometry" />
        </mxCell>
        <mxCell id="E7fMpskd_EGFrEy_9-nK-10" value="YES" style="edgeStyle=orthogonalEdgeStyle;rounded=0;orthogonalLoop=1;jettySize=auto;html=1;exitX=0.5;exitY=1;exitDx=0;exitDy=0;entryX=0.5;entryY=0;entryDx=0;entryDy=0;" edge="1" parent="1" source="E7fMpskd_EGFrEy_9-nK-8" target="E7fMpskd_EGFrEy_9-nK-13">
          <mxGeometry relative="1" as="geometry">
            <mxPoint x="1010" y="260" as="targetPoint" />
          </mxGeometry>
        </mxCell>
        <mxCell id="E7fMpskd_EGFrEy_9-nK-11" value="NO" style="edgeStyle=orthogonalEdgeStyle;rounded=0;orthogonalLoop=1;jettySize=auto;html=1;exitX=1;exitY=0.5;exitDx=0;exitDy=0;entryX=0;entryY=0.5;entryDx=0;entryDy=0;" edge="1" parent="1" source="E7fMpskd_EGFrEy_9-nK-8" target="E7fMpskd_EGFrEy_9-nK-12">
          <mxGeometry relative="1" as="geometry">
            <mxPoint x="1220" y="80" as="targetPoint" />
          </mxGeometry>
        </mxCell>
        <mxCell id="E7fMpskd_EGFrEy_9-nK-8" value="r &amp;lt; i" style="rhombus;whiteSpace=wrap;html=1;" vertex="1" parent="1">
          <mxGeometry x="970" y="40" width="80" height="80" as="geometry" />
        </mxCell>
        <mxCell id="E7fMpskd_EGFrEy_9-nK-12" value="END" style="ellipse;whiteSpace=wrap;html=1;" vertex="1" parent="1">
          <mxGeometry x="1215" y="40" width="120" height="80" as="geometry" />
        </mxCell>
        <mxCell id="E7fMpskd_EGFrEy_9-nK-53" style="edgeStyle=orthogonalEdgeStyle;rounded=0;orthogonalLoop=1;jettySize=auto;html=1;exitX=0.5;exitY=1;exitDx=0;exitDy=0;entryX=0.5;entryY=0;entryDx=0;entryDy=0;" edge="1" parent="1" source="E7fMpskd_EGFrEy_9-nK-13" target="E7fMpskd_EGFrEy_9-nK-52">
          <mxGeometry relative="1" as="geometry" />
        </mxCell>
        <mxCell id="E7fMpskd_EGFrEy_9-nK-13" value="c = 0" style="rounded=0;whiteSpace=wrap;html=1;" vertex="1" parent="1">
          <mxGeometry x="950" y="170" width="120" height="60" as="geometry" />
        </mxCell>
        <mxCell id="E7fMpskd_EGFrEy_9-nK-19" value="NO" style="edgeStyle=orthogonalEdgeStyle;rounded=0;orthogonalLoop=1;jettySize=auto;html=1;exitX=0.5;exitY=1;exitDx=0;exitDy=0;entryX=0.5;entryY=0;entryDx=0;entryDy=0;" edge="1" parent="1" source="E7fMpskd_EGFrEy_9-nK-14" target="E7fMpskd_EGFrEy_9-nK-16">
          <mxGeometry relative="1" as="geometry" />
        </mxCell>
        <mxCell id="E7fMpskd_EGFrEy_9-nK-29" value="YES" style="edgeStyle=orthogonalEdgeStyle;rounded=0;orthogonalLoop=1;jettySize=auto;html=1;exitX=0;exitY=0.5;exitDx=0;exitDy=0;entryX=1;entryY=0.5;entryDx=0;entryDy=0;" edge="1" parent="1" source="E7fMpskd_EGFrEy_9-nK-14" target="E7fMpskd_EGFrEy_9-nK-28">
          <mxGeometry relative="1" as="geometry" />
        </mxCell>
        <mxCell id="E7fMpskd_EGFrEy_9-nK-14" value="r == 0 &amp;amp;&amp;amp; c == 0" style="rhombus;whiteSpace=wrap;html=1;" vertex="1" parent="1">
          <mxGeometry x="930" y="420" width="160" height="80" as="geometry" />
        </mxCell>
        <mxCell id="E7fMpskd_EGFrEy_9-nK-18" value="&lt;span style=&quot;caret-color: rgb(0, 0, 0); color: rgb(0, 0, 0); font-family: Helvetica; font-size: 11px; font-style: normal; font-variant-caps: normal; font-weight: 400; letter-spacing: normal; text-align: center; text-indent: 0px; text-transform: none; word-spacing: 0px; -webkit-text-stroke-width: 0px; background-color: rgb(255, 255, 255); text-decoration: none; float: none; display: inline !important;&quot;&gt;NO&lt;/span&gt;" style="edgeStyle=orthogonalEdgeStyle;rounded=0;orthogonalLoop=1;jettySize=auto;html=1;exitX=0.5;exitY=1;exitDx=0;exitDy=0;entryX=0.5;entryY=0;entryDx=0;entryDy=0;" edge="1" parent="1" source="E7fMpskd_EGFrEy_9-nK-16" target="E7fMpskd_EGFrEy_9-nK-17">
          <mxGeometry relative="1" as="geometry" />
        </mxCell>
        <mxCell id="E7fMpskd_EGFrEy_9-nK-16" value="r == 0 &amp;amp;&amp;amp; c == i - 1" style="rhombus;whiteSpace=wrap;html=1;" vertex="1" parent="1">
          <mxGeometry x="930" y="560" width="160" height="80" as="geometry" />
        </mxCell>
        <mxCell id="E7fMpskd_EGFrEy_9-nK-23" value="&lt;span style=&quot;caret-color: rgb(0, 0, 0); color: rgb(0, 0, 0); font-family: Helvetica; font-size: 11px; font-style: normal; font-variant-caps: normal; font-weight: 400; letter-spacing: normal; text-align: center; text-indent: 0px; text-transform: none; word-spacing: 0px; -webkit-text-stroke-width: 0px; background-color: rgb(255, 255, 255); text-decoration: none; float: none; display: inline !important;&quot;&gt;NO&lt;/span&gt;" style="edgeStyle=orthogonalEdgeStyle;rounded=0;orthogonalLoop=1;jettySize=auto;html=1;exitX=0.5;exitY=1;exitDx=0;exitDy=0;entryX=0.5;entryY=0;entryDx=0;entryDy=0;" edge="1" parent="1" source="E7fMpskd_EGFrEy_9-nK-17" target="E7fMpskd_EGFrEy_9-nK-21">
          <mxGeometry relative="1" as="geometry" />
        </mxCell>
        <mxCell id="E7fMpskd_EGFrEy_9-nK-17" value="r == i - 1 &amp;amp;&amp;amp; c == 0" style="rhombus;whiteSpace=wrap;html=1;" vertex="1" parent="1">
          <mxGeometry x="930" y="700" width="160" height="80" as="geometry" />
        </mxCell>
        <mxCell id="E7fMpskd_EGFrEy_9-nK-20" value="&lt;span style=&quot;caret-color: rgb(0, 0, 0); color: rgb(0, 0, 0); font-family: Helvetica; font-size: 11px; font-style: normal; font-variant-caps: normal; font-weight: 400; letter-spacing: normal; text-align: center; text-indent: 0px; text-transform: none; word-spacing: 0px; -webkit-text-stroke-width: 0px; background-color: rgb(255, 255, 255); text-decoration: none; float: none; display: inline !important;&quot;&gt;NO&lt;/span&gt;" style="edgeStyle=orthogonalEdgeStyle;rounded=0;orthogonalLoop=1;jettySize=auto;html=1;exitX=0.5;exitY=1;exitDx=0;exitDy=0;entryX=0.5;entryY=0;entryDx=0;entryDy=0;" edge="1" parent="1" source="E7fMpskd_EGFrEy_9-nK-21" target="E7fMpskd_EGFrEy_9-nK-22">
          <mxGeometry relative="1" as="geometry" />
        </mxCell>
        <mxCell id="E7fMpskd_EGFrEy_9-nK-21" value="r == i - 1 &amp;amp;&amp;amp; c == i - 1" style="rhombus;whiteSpace=wrap;html=1;" vertex="1" parent="1">
          <mxGeometry x="930" y="840" width="160" height="80" as="geometry" />
        </mxCell>
        <mxCell id="E7fMpskd_EGFrEy_9-nK-27" value="&lt;span style=&quot;caret-color: rgb(0, 0, 0); color: rgb(0, 0, 0); font-family: Helvetica; font-size: 11px; font-style: normal; font-variant-caps: normal; font-weight: 400; letter-spacing: normal; text-align: center; text-indent: 0px; text-transform: none; word-spacing: 0px; -webkit-text-stroke-width: 0px; background-color: rgb(255, 255, 255); text-decoration: none; float: none; display: inline !important;&quot;&gt;NO&lt;/span&gt;" style="edgeStyle=orthogonalEdgeStyle;rounded=0;orthogonalLoop=1;jettySize=auto;html=1;exitX=0.5;exitY=1;exitDx=0;exitDy=0;entryX=0.5;entryY=0;entryDx=0;entryDy=0;" edge="1" parent="1" source="E7fMpskd_EGFrEy_9-nK-22" target="E7fMpskd_EGFrEy_9-nK-25">
          <mxGeometry relative="1" as="geometry" />
        </mxCell>
        <mxCell id="E7fMpskd_EGFrEy_9-nK-38" value="YES" style="edgeStyle=orthogonalEdgeStyle;rounded=0;orthogonalLoop=1;jettySize=auto;html=1;exitX=0;exitY=0.5;exitDx=0;exitDy=0;entryX=1;entryY=0.5;entryDx=0;entryDy=0;" edge="1" parent="1" source="E7fMpskd_EGFrEy_9-nK-22" target="E7fMpskd_EGFrEy_9-nK-37">
          <mxGeometry relative="1" as="geometry" />
        </mxCell>
        <mxCell id="E7fMpskd_EGFrEy_9-nK-22" value="r != 0 &amp;amp;&amp;amp; r != i - 1 &amp;amp;&amp;amp; c != 0 &amp;amp;&amp;amp; c != i - 1" style="rhombus;whiteSpace=wrap;html=1;" vertex="1" parent="1">
          <mxGeometry x="850" y="980" width="320" height="80" as="geometry" />
        </mxCell>
        <mxCell id="E7fMpskd_EGFrEy_9-nK-24" value="&lt;span style=&quot;caret-color: rgb(0, 0, 0); color: rgb(0, 0, 0); font-family: Helvetica; font-size: 11px; font-style: normal; font-variant-caps: normal; font-weight: 400; letter-spacing: normal; text-align: center; text-indent: 0px; text-transform: none; word-spacing: 0px; -webkit-text-stroke-width: 0px; background-color: rgb(255, 255, 255); text-decoration: none; float: none; display: inline !important;&quot;&gt;NO&lt;/span&gt;" style="edgeStyle=orthogonalEdgeStyle;rounded=0;orthogonalLoop=1;jettySize=auto;html=1;exitX=0.5;exitY=1;exitDx=0;exitDy=0;entryX=0.5;entryY=0;entryDx=0;entryDy=0;" edge="1" parent="1" source="E7fMpskd_EGFrEy_9-nK-25">
          <mxGeometry relative="1" as="geometry">
            <mxPoint x="1010" y="1260" as="targetPoint" />
          </mxGeometry>
        </mxCell>
        <mxCell id="E7fMpskd_EGFrEy_9-nK-25" value="r == 0 || r == i - 1" style="rhombus;whiteSpace=wrap;html=1;" vertex="1" parent="1">
          <mxGeometry x="930" y="1120" width="160" height="80" as="geometry" />
        </mxCell>
        <mxCell id="E7fMpskd_EGFrEy_9-nK-45" style="edgeStyle=orthogonalEdgeStyle;rounded=0;orthogonalLoop=1;jettySize=auto;html=1;exitX=0;exitY=0.5;exitDx=0;exitDy=0;entryX=0;entryY=0.5;entryDx=0;entryDy=0;" edge="1" parent="1" source="E7fMpskd_EGFrEy_9-nK-28" target="E7fMpskd_EGFrEy_9-nK-43">
          <mxGeometry relative="1" as="geometry" />
        </mxCell>
        <mxCell id="E7fMpskd_EGFrEy_9-nK-28" value="&quot;╔&quot;" style="shape=document;whiteSpace=wrap;html=1;boundedLbl=1;" vertex="1" parent="1">
          <mxGeometry x="670" y="420" width="120" height="80" as="geometry" />
        </mxCell>
        <mxCell id="E7fMpskd_EGFrEy_9-nK-30" value="YES" style="edgeStyle=orthogonalEdgeStyle;rounded=0;orthogonalLoop=1;jettySize=auto;html=1;exitX=0;exitY=0.5;exitDx=0;exitDy=0;entryX=1;entryY=0.5;entryDx=0;entryDy=0;" edge="1" parent="1" target="E7fMpskd_EGFrEy_9-nK-31">
          <mxGeometry relative="1" as="geometry">
            <mxPoint x="930" y="600" as="sourcePoint" />
          </mxGeometry>
        </mxCell>
        <mxCell id="E7fMpskd_EGFrEy_9-nK-46" style="edgeStyle=orthogonalEdgeStyle;rounded=0;orthogonalLoop=1;jettySize=auto;html=1;exitX=0;exitY=0.5;exitDx=0;exitDy=0;entryX=0;entryY=0.5;entryDx=0;entryDy=0;" edge="1" parent="1" source="E7fMpskd_EGFrEy_9-nK-31" target="E7fMpskd_EGFrEy_9-nK-43">
          <mxGeometry relative="1" as="geometry">
            <mxPoint x="600" y="310" as="targetPoint" />
          </mxGeometry>
        </mxCell>
        <mxCell id="E7fMpskd_EGFrEy_9-nK-31" value="&quot;╗&quot;" style="shape=document;whiteSpace=wrap;html=1;boundedLbl=1;" vertex="1" parent="1">
          <mxGeometry x="670" y="560" width="120" height="80" as="geometry" />
        </mxCell>
        <mxCell id="E7fMpskd_EGFrEy_9-nK-32" value="YES" style="edgeStyle=orthogonalEdgeStyle;rounded=0;orthogonalLoop=1;jettySize=auto;html=1;exitX=0;exitY=0.5;exitDx=0;exitDy=0;entryX=1;entryY=0.5;entryDx=0;entryDy=0;" edge="1" parent="1" target="E7fMpskd_EGFrEy_9-nK-33">
          <mxGeometry relative="1" as="geometry">
            <mxPoint x="930" y="740" as="sourcePoint" />
          </mxGeometry>
        </mxCell>
        <mxCell id="E7fMpskd_EGFrEy_9-nK-47" style="edgeStyle=orthogonalEdgeStyle;rounded=0;orthogonalLoop=1;jettySize=auto;html=1;exitX=0;exitY=0.5;exitDx=0;exitDy=0;entryX=0;entryY=0.5;entryDx=0;entryDy=0;" edge="1" parent="1" source="E7fMpskd_EGFrEy_9-nK-33" target="E7fMpskd_EGFrEy_9-nK-43">
          <mxGeometry relative="1" as="geometry">
            <mxPoint x="600" y="310" as="targetPoint" />
          </mxGeometry>
        </mxCell>
        <mxCell id="E7fMpskd_EGFrEy_9-nK-33" value="&quot;╚&quot;" style="shape=document;whiteSpace=wrap;html=1;boundedLbl=1;" vertex="1" parent="1">
          <mxGeometry x="670" y="700" width="120" height="80" as="geometry" />
        </mxCell>
        <mxCell id="E7fMpskd_EGFrEy_9-nK-34" value="YES" style="edgeStyle=orthogonalEdgeStyle;rounded=0;orthogonalLoop=1;jettySize=auto;html=1;exitX=0;exitY=0.5;exitDx=0;exitDy=0;entryX=1;entryY=0.5;entryDx=0;entryDy=0;" edge="1" parent="1" target="E7fMpskd_EGFrEy_9-nK-35">
          <mxGeometry relative="1" as="geometry">
            <mxPoint x="930" y="880" as="sourcePoint" />
          </mxGeometry>
        </mxCell>
        <mxCell id="E7fMpskd_EGFrEy_9-nK-48" style="edgeStyle=orthogonalEdgeStyle;rounded=0;orthogonalLoop=1;jettySize=auto;html=1;exitX=0;exitY=0.5;exitDx=0;exitDy=0;entryX=0;entryY=0.5;entryDx=0;entryDy=0;" edge="1" parent="1" source="E7fMpskd_EGFrEy_9-nK-35" target="E7fMpskd_EGFrEy_9-nK-43">
          <mxGeometry relative="1" as="geometry">
            <mxPoint x="560" y="560" as="targetPoint" />
          </mxGeometry>
        </mxCell>
        <mxCell id="E7fMpskd_EGFrEy_9-nK-35" value="&quot;╝&quot;" style="shape=document;whiteSpace=wrap;html=1;boundedLbl=1;" vertex="1" parent="1">
          <mxGeometry x="670" y="840" width="120" height="80" as="geometry" />
        </mxCell>
        <mxCell id="E7fMpskd_EGFrEy_9-nK-49" style="edgeStyle=orthogonalEdgeStyle;rounded=0;orthogonalLoop=1;jettySize=auto;html=1;exitX=0;exitY=0.5;exitDx=0;exitDy=0;entryX=0;entryY=0.5;entryDx=0;entryDy=0;" edge="1" parent="1" source="E7fMpskd_EGFrEy_9-nK-37" target="E7fMpskd_EGFrEy_9-nK-43">
          <mxGeometry relative="1" as="geometry">
            <mxPoint x="600" y="600" as="targetPoint" />
          </mxGeometry>
        </mxCell>
        <mxCell id="E7fMpskd_EGFrEy_9-nK-37" value="&quot; &quot;" style="shape=document;whiteSpace=wrap;html=1;boundedLbl=1;" vertex="1" parent="1">
          <mxGeometry x="670" y="980" width="120" height="80" as="geometry" />
        </mxCell>
        <mxCell id="E7fMpskd_EGFrEy_9-nK-39" value="YES" style="edgeStyle=orthogonalEdgeStyle;rounded=0;orthogonalLoop=1;jettySize=auto;html=1;exitX=0;exitY=0.5;exitDx=0;exitDy=0;entryX=1;entryY=0.5;entryDx=0;entryDy=0;" edge="1" parent="1" target="E7fMpskd_EGFrEy_9-nK-40">
          <mxGeometry relative="1" as="geometry">
            <mxPoint x="920" y="1160" as="sourcePoint" />
          </mxGeometry>
        </mxCell>
        <mxCell id="E7fMpskd_EGFrEy_9-nK-50" style="edgeStyle=orthogonalEdgeStyle;rounded=0;orthogonalLoop=1;jettySize=auto;html=1;exitX=0;exitY=0.5;exitDx=0;exitDy=0;entryX=0;entryY=0.5;entryDx=0;entryDy=0;" edge="1" parent="1" source="E7fMpskd_EGFrEy_9-nK-40" target="E7fMpskd_EGFrEy_9-nK-43">
          <mxGeometry relative="1" as="geometry">
            <mxPoint x="530" y="590" as="targetPoint" />
          </mxGeometry>
        </mxCell>
        <mxCell id="E7fMpskd_EGFrEy_9-nK-40" value="&quot;═&quot;" style="shape=document;whiteSpace=wrap;html=1;boundedLbl=1;" vertex="1" parent="1">
          <mxGeometry x="670" y="1120" width="120" height="80" as="geometry" />
        </mxCell>
        <mxCell id="E7fMpskd_EGFrEy_9-nK-51" style="edgeStyle=orthogonalEdgeStyle;rounded=0;orthogonalLoop=1;jettySize=auto;html=1;exitX=0;exitY=0.5;exitDx=0;exitDy=0;entryX=0;entryY=0.5;entryDx=0;entryDy=0;" edge="1" parent="1" source="E7fMpskd_EGFrEy_9-nK-42" target="E7fMpskd_EGFrEy_9-nK-43">
          <mxGeometry relative="1" as="geometry">
            <mxPoint x="510" y="330" as="targetPoint" />
          </mxGeometry>
        </mxCell>
        <mxCell id="E7fMpskd_EGFrEy_9-nK-42" value="&quot;║&quot;" style="shape=document;whiteSpace=wrap;html=1;boundedLbl=1;" vertex="1" parent="1">
          <mxGeometry x="950" y="1270" width="120" height="80" as="geometry" />
        </mxCell>
        <mxCell id="E7fMpskd_EGFrEy_9-nK-55" style="edgeStyle=orthogonalEdgeStyle;rounded=0;orthogonalLoop=1;jettySize=auto;html=1;exitX=1;exitY=0.5;exitDx=0;exitDy=0;entryX=0;entryY=0.5;entryDx=0;entryDy=0;" edge="1" parent="1" source="E7fMpskd_EGFrEy_9-nK-43" target="E7fMpskd_EGFrEy_9-nK-52">
          <mxGeometry relative="1" as="geometry" />
        </mxCell>
        <mxCell id="E7fMpskd_EGFrEy_9-nK-43" value="c = c + 1" style="rounded=0;whiteSpace=wrap;html=1;" vertex="1" parent="1">
          <mxGeometry x="670" y="280" width="120" height="60" as="geometry" />
        </mxCell>
        <mxCell id="E7fMpskd_EGFrEy_9-nK-54" value="YES" style="edgeStyle=orthogonalEdgeStyle;rounded=0;orthogonalLoop=1;jettySize=auto;html=1;exitX=0.5;exitY=1;exitDx=0;exitDy=0;entryX=0.5;entryY=0;entryDx=0;entryDy=0;" edge="1" parent="1" source="E7fMpskd_EGFrEy_9-nK-52" target="E7fMpskd_EGFrEy_9-nK-14">
          <mxGeometry relative="1" as="geometry" />
        </mxCell>
        <mxCell id="E7fMpskd_EGFrEy_9-nK-56" value="NO" style="edgeStyle=orthogonalEdgeStyle;rounded=0;orthogonalLoop=1;jettySize=auto;html=1;exitX=1;exitY=0.5;exitDx=0;exitDy=0;entryX=0;entryY=0.5;entryDx=0;entryDy=0;" edge="1" parent="1" source="E7fMpskd_EGFrEy_9-nK-52" target="E7fMpskd_EGFrEy_9-nK-58">
          <mxGeometry relative="1" as="geometry">
            <mxPoint x="1210" y="310" as="targetPoint" />
          </mxGeometry>
        </mxCell>
        <mxCell id="E7fMpskd_EGFrEy_9-nK-52" value="c &amp;lt; i" style="rhombus;whiteSpace=wrap;html=1;" vertex="1" parent="1">
          <mxGeometry x="970" y="270" width="80" height="80" as="geometry" />
        </mxCell>
        <mxCell id="E7fMpskd_EGFrEy_9-nK-60" style="edgeStyle=orthogonalEdgeStyle;rounded=0;orthogonalLoop=1;jettySize=auto;html=1;exitX=0.5;exitY=0;exitDx=0;exitDy=0;entryX=0.5;entryY=0;entryDx=0;entryDy=0;" edge="1" parent="1" source="E7fMpskd_EGFrEy_9-nK-57" target="E7fMpskd_EGFrEy_9-nK-8">
          <mxGeometry relative="1" as="geometry" />
        </mxCell>
        <mxCell id="E7fMpskd_EGFrEy_9-nK-57" value="r = r + 1" style="rounded=0;whiteSpace=wrap;html=1;" vertex="1" parent="1">
          <mxGeometry x="1380" y="280" width="120" height="60" as="geometry" />
        </mxCell>
        <mxCell id="E7fMpskd_EGFrEy_9-nK-59" style="edgeStyle=orthogonalEdgeStyle;rounded=0;orthogonalLoop=1;jettySize=auto;html=1;exitX=1;exitY=0.5;exitDx=0;exitDy=0;entryX=0;entryY=0.5;entryDx=0;entryDy=0;" edge="1" parent="1" source="E7fMpskd_EGFrEy_9-nK-58" target="E7fMpskd_EGFrEy_9-nK-57">
          <mxGeometry relative="1" as="geometry" />
        </mxCell>
        <mxCell id="E7fMpskd_EGFrEy_9-nK-58" value="&amp;lt;ENTER&amp;gt;" style="shape=document;whiteSpace=wrap;html=1;boundedLbl=1;" vertex="1" parent="1">
          <mxGeometry x="1190" y="270" width="120" height="80" as="geometry" />
        </mxCell>
      </root>
    </mxGraphModel>
  </diagram>
</mxfile>
